<?xml version="1.0" encoding="UTF-8"?>
<svg id="Layer_2" data-name="Layer 2" xmlns="http://www.w3.org/2000/svg" xmlns:xlink="http://www.w3.org/1999/xlink" viewBox="0 0 292.66 207.67">
  <defs>
    <style>
      .cls-1 {
        opacity: .18;
      }

      .cls-1, .cls-2 {
        fill: #f49595;
      }

      .cls-3, .cls-4, .cls-5 {
        fill: #fff;
      }

      .cls-6, .cls-7, .cls-8, .cls-9 {
        fill: #238df0;
      }

      .cls-6, .cls-4 {
        opacity: .48;
      }

      .cls-10 {
        opacity: .31;
      }

      .cls-7 {
        opacity: .25;
      }

      .cls-8 {
        opacity: .67;
      }

      .cls-11 {
        fill: #0b0042;
      }

      .cls-12 {
        fill: url(#linear-gradient-6);
      }

      .cls-13 {
        fill: url(#linear-gradient);
        opacity: .17;
      }

      .cls-14 {
        fill: #e80c0c;
      }

      .cls-15 {
        fill: url(#linear-gradient-10);
      }

      .cls-16 {
        opacity: .4;
      }

      .cls-17 {
        fill: #1d1d1b;
        fill-rule: evenodd;
      }

      .cls-9 {
        opacity: .45;
      }

      .cls-18 {
        fill: #ff9798;
      }

      .cls-19 {
        fill: url(#linear-gradient-5);
      }

      .cls-20 {
        fill: url(#linear-gradient-3);
        opacity: .43;
      }

      .cls-5 {
        opacity: .33;
      }

      .cls-21 {
        fill: none;
      }

      .cls-22 {
        fill: url(#linear-gradient-7);
      }

      .cls-23 {
        fill: #ff2e2e;
      }

      .cls-24 {
        fill: url(#linear-gradient-2);
        opacity: .26;
      }

      .cls-25 {
        fill: url(#linear-gradient-9);
      }

      .cls-26 {
        fill: #ffc7c9;
      }

      .cls-27 {
        fill: #ffc3c5;
      }

      .cls-28 {
        fill: url(#linear-gradient-4);
      }

      .cls-29 {
        fill: url(#linear-gradient-8);
      }

      .cls-30 {
        fill: #e88585;
      }
    </style>
    <linearGradient id="linear-gradient" x1="232.86" y1="18.01" x2="259.92" y2="53.28" gradientUnits="userSpaceOnUse">
      <stop offset="0" stop-color="#b0daff"/>
      <stop offset="1" stop-color="#1484ef"/>
    </linearGradient>
    <linearGradient id="linear-gradient-2" x1="206.27" y1="49.42" x2="167.44" y2="14.55" xlink:href="#linear-gradient"/>
    <linearGradient id="linear-gradient-3" x1="130.42" y1="-5.27" x2="83.49" y2="51.36" xlink:href="#linear-gradient"/>
    <linearGradient id="linear-gradient-4" x1="284.9" y1="155.21" x2="247.96" y2="215.22" gradientUnits="userSpaceOnUse">
      <stop offset="0" stop-color="#1384ef"/>
      <stop offset="1" stop-color="#001376"/>
    </linearGradient>
    <linearGradient id="linear-gradient-5" x1="1461.37" y1="349.6" x2="1424.44" y2="409.61" gradientTransform="translate(1616.97 312.73) rotate(-158.25) scale(1 -1)" xlink:href="#linear-gradient-4"/>
    <linearGradient id="linear-gradient-6" x1="277.32" y1="76.01" x2="222.79" y2="203.13" gradientUnits="userSpaceOnUse">
      <stop offset="0" stop-color="#b0daff"/>
      <stop offset="1" stop-color="#0e81ee"/>
    </linearGradient>
    <linearGradient id="linear-gradient-7" x1="1445.42" y1="76.01" x2="1390.89" y2="203.13" gradientTransform="translate(1524.11) rotate(-180) scale(1 -1)" xlink:href="#linear-gradient-6"/>
    <linearGradient id="linear-gradient-8" x1="184.1" y1="268.87" x2="134.21" y2="234.08" gradientUnits="userSpaceOnUse">
      <stop offset="0" stop-color="#fff"/>
      <stop offset="1" stop-color="#acccef"/>
    </linearGradient>
    <linearGradient id="linear-gradient-9" x1="3.18" y1="171.67" x2="112.69" y2="171.67" xlink:href="#linear-gradient-8"/>
    <linearGradient id="linear-gradient-10" x1="21.35" y1="246.04" x2="97.4" y2="76.7" xlink:href="#linear-gradient-8"/>
  </defs>
  <g id="OBJECTS">
    <g>
      <g>
        <ellipse class="cls-23" cx="143.5" cy="85.44" rx="7.22" ry="11.75"/>
        <path class="cls-11" d="m166.52,112.91c-1.46.69-3.15.58-4.76.39-4.15-.49-8.34-1.48-11.83-3.77-3.49-2.29-6.2-6.06-6.4-10.23-.13-2.83.86-5.58,1.52-8.33.95-4.01,1.19-8.19.69-12.28"/>
        <path class="cls-27" d="m182.34,100.28c-1.63,3.44-1.94,7.5-.85,11.15s3.57,6.87,6.82,8.86c.4.24.84.51.99.95.21.62-.26,1.26-.73,1.72-2.12,2.13-4.79,3.69-7.69,4.49-4.33,1.2-8.93.67-13.38,0-3.44-.53-7.18-1.32-9.35-4.04,4.41-4.36,5.77-11.51,3.26-17.18"/>
        <path class="cls-18" d="m183.12,96.59c-1.78,4.17-1.18,5.12-4.07,8.27-.63.68-2.61,3.08-3.54,3.95-.75.71-3.24,2.15-4.13,2.56-1.45.67-2.79,1.34-4.34,1.52-1.93.22-2.85.32-4.33-.71,0,0-.2-3.95-1.01-5.21"/>
        <path class="cls-11" d="m140.87,74.76c1.57,5.56-2.09,11.11-3.26,16.76-1.25,6.05.73,12.91,5.65,16.65-1.7-3.91-1.9-8.45-.55-12.5.96-2.87,2.66-5.48,3.38-8.43.77-3.16.36-6.46-.06-9.68"/>
        <path class="cls-11" d="m161.72,49.03c8.59-5.93,23.87-2.94,30.64,4.62,5.23,5.84,7.53,13.69,11.72,20.32,1.93,3.05,3.84,7.27,4.53,10.81,1.35,6.94-.07,14.07-6.51,17.74,3.88-6.37,1.54-13.59-3.94-16.32"/>
        <path class="cls-26" d="m153.41,64.42c-2.98,2.16-6.13,6.3-6.73,9.93s1.99,7.04,2.57,10.41c.84,4.91-.25,9.16,1.86,13.67,1.01,2.16,3.37,5.49,5.3,7.13s3.3,3.32,5.72,3.78c1.91.36,3.17-.2,5.05-.67,4.27-1.09,10.68-4.22,14.47-7.98,4.23-4.19,5.68-6.06,7.06-11.86,1.39-5.8,1.03-11.92-.37-17.71"/>
        <path class="cls-18" d="m147.02,79.04c1.51-3.58,3.76-6.86,6.57-9.55.38-.37.79-.74,1.3-.9,1.81-.59,3.19,1.55,4.36,3.05,3.14,4.03,11.74,7.65,16.81,7.04,5.07-.61,10.17-.98,15.27-.77-3.3-7.79-12.21-18.56-19.63-22.63-3-1.64-6.38-2.9-9.77-2.48-5.11.63-8.96,4.82-12.13,8.87-1.59,2.03-3.22,4.43-2.79,6.97"/>
        <path class="cls-11" d="m156.92,57.28c-.51,6.69-7.06,10.52-8.31,17.11-.37,1.94-.29,4.68-.05,6.64.33,2.65,1.74,5.91,2.92,8.31-3.37-.53-7.53-4.52-8.83-7.68-2.34-5.71-2.54-12.35-.13-18.04,2.41-5.68,7.29-15.07,20.17-14.63"/>
        <path class="cls-11" d="m148.26,58.69c6.18,2.75,8.51,10.48,14.03,14.39,3.57,2.53,6.4,3.73,10.73,4.33,1.13.16,6.16-.5,7.19-1-2.41-2.26-5.99-5.26-6.02-8.57,3.98,5.43,10.22,9.14,16.89,10.06-2.09-5.41-4.17-10.83-6.26-16.24-.52-1.34-1.03-2.68-1.72-3.94-2.79-5.09-8.32-8.39-14.09-9.07-5.76-.68-11.66,1.1-16.5,4.3-2.17,1.43-4.24,3.28-5,5.77"/>
        <path class="cls-11" d="m193.16,62.04c-.79-1.43-1.64-2.82-2.62-4.12-1.66-2.18-3.72-4.06-6.12-5.39-3.63-2.01-7.99-2.67-12.06-1.83l7.93,17.9c.24.72.5,1.47.77,2.24l-3.04.9s5.1,3.55,5.1,14.2c0,8.34-2.47,11.85-3.24,16.27-.33,1.36-.32,2.63-.17,3.98,0,0,0,.01,0,.02,0,0,0,0,0,.01.15,1.33.42,2.75.63,4.43.06.5.16,1.06.58,1.35.4.28.93.19,1.41.09,3.45-.72,6.91-1.6,10.01-3.28,3.1-1.67,6.6-4.33,7.93-7.59.87-2.11,1.41-4.59,1.51-6.87.54-11.29-3.16-22.42-8.63-32.31Z"/>
        <g>
          <path class="cls-18" d="m157.94,82.85c-.35,2.54-.5,4.46-1.78,7.38-.09.21-.06.49.04.68.09.17.25.24.4.3,1.16.43,2.38.62,3.58.55-.3-3.13-1.06-6.18-2.24-8.91"/>
          <path class="cls-11" d="m154.72,76.76c-2.13-.2-4.45-.08-6.51.54-.82.25-1.7.59-2.4,1.09-.76.54-1.2,1.27-1.56,2.12-.28.67.81.96,1.09.3s.68-1.24,1.31-1.62c.68-.41,1.46-.71,2.23-.9,1.88-.48,3.92-.58,5.85-.39.72.07.72-1.06,0-1.13h0Z"/>
          <ellipse class="cls-11" cx="152.58" cy="83.28" rx="1.16" ry="1.48"/>
          <ellipse class="cls-11" cx="168.93" cy="81.82" rx="1.16" ry="1.48"/>
          <path class="cls-3" d="m155.21,96.2l13.84-1.6s-3.29,5.68-7.11,6.21c-5.18.72-6.73-4.61-6.73-4.61Z"/>
          <circle class="cls-18" cx="173.75" cy="89.57" r="3.39"/>
          <ellipse class="cls-18" cx="151.74" cy="92.64" rx="2" ry="3.39" transform="translate(-13.4 26.8) rotate(-9.67)"/>
          <path class="cls-11" d="m165.01,76.56c1.81-.71,3.8-1.18,5.75-1.23.77-.02,1.58.05,2.33.25.79.2,1.33.69,1.83,1.31.45.57,1.25-.24.8-.8-.55-.69-1.2-1.24-2.05-1.52s-1.77-.37-2.64-.37c-2.13,0-4.34.5-6.32,1.27-.67.26-.38,1.35.3,1.09h0Z"/>
        </g>
        <g>
          <g>
            <ellipse class="cls-23" cx="187.1" cy="85.44" rx="9.11" ry="11.75"/>
            <path class="cls-23" d="m188.15,74.73c-.36-2.57-1.13-5.12-2.04-7.54-1.8-4.83-4.5-9.56-8.6-12.81-2.33-1.85-5.04-3.18-7.96-3.77-3.39-.68-7.03-.54-10.37.36-5.57,1.51-9.85,5.51-12.32,10.65-1.84,3.82-2.75,7.96-3.25,12.15-.03.29-.07.57-.1.86-.06.53.5,1,1,1,.59,0,.93-.46,1-1,.03-.29.07-.57.1-.86.02-.15.04-.3.06-.46.01-.09.02-.17.03-.26.04-.29-.02.15.02-.14.12-.84.25-1.68.41-2.51.41-2.13.99-4.23,1.79-6.25,1.8-4.52,5.08-8.72,9.83-10.6,5.56-2.2,12.31-1.84,17.33,1.5,4.08,2.72,6.92,7.23,8.7,11.59.73,1.8,1.34,3.66,1.82,5.55.25.97.4,1.96.62,2.94.01.04.01.09.02.14.08.53.75.82,1.22.69.57-.16.77-.69.69-1.22h0Z"/>
            <ellipse class="cls-14" cx="188.13" cy="84.76" rx="7.29" ry="9.4"/>
          </g>
          <g>
            <path class="cls-11" d="m186.33,91.07c-3.6,3.27-7.89,5.93-12.19,8.15-2.27,1.17-4.6,2.19-7,3.06-.68.24-.39,1.33.3,1.09,6.7-2.41,13.02-6.02,18.54-10.52.39-.32.78-.64,1.15-.98.54-.49-.26-1.28-.8-.8h0Z"/>
            <ellipse class="cls-11" cx="166.35" cy="103.4" rx="2.57" ry="1.51" transform="translate(-25.35 63.21) rotate(-20.02)"/>
          </g>
        </g>
      </g>
      <g>
        <circle class="cls-13" cx="266.11" cy="61.34" r="22.23"/>
        <path class="cls-3" d="m265.37,75.31c2.63-.7,4.91-2.23,6.12-4.48.06-.1.58-1.06.56-1.16,1.41-2.72,1.3-7.24,1.19-8.75-.09-4.19-1.22-7.19-2.26-8.78,0-.16-.62-1.06-.75-1.2-2.43-2.62-4.19-3.32-6.91-3.64-1.26-.15-2.48.52-2.42,1.32l.58,7.85c.06.79,1.34,1.27,2.55.95,1.12-.3,2.45-.76,3.59-1.43.51,1.32.93,3.06.97,5.24v.06c.11,1.56.04,3.36-.18,4.84-1.22-.51-2.6-.78-3.76-.91-1.26-.15-2.48.52-2.42,1.32l.58,7.85c.06.79,1.34,1.27,2.55.95Z"/>
      </g>
      <g>
        <circle class="cls-24" cx="169.1" cy="16.05" r="16.05"/>
        <path class="cls-3" d="m175.51,13.16c0-3.71-2.87-6.72-6.4-6.72s-6.4,3.01-6.4,6.72c0,.8.14,1.56.38,2.27h0s.03.07.03.07c.13.36.29.71.47,1.04l5.75,9.12,5.57-9.64h0c.39-.87.62-1.84.62-2.86Zm-6.21,2.89c-1.7,0-3.08-1.38-3.08-3.08s1.38-3.08,3.08-3.08,3.08,1.38,3.08,3.08-1.38,3.08-3.08,3.08Z"/>
      </g>
      <g>
        <path class="cls-20" d="m98.01,55.47c2.33-2.91,3.73-6.6,3.73-10.61,0-9.38-7.6-16.99-16.99-16.99s-16.99,7.6-16.99,16.99,7.6,16.99,16.99,16.99c2.15,0,4.21-.4,6.11-1.14h0s8.45,3.2,8.45,3.2l-1.28-8.45h0Z"/>
        <g>
          <circle class="cls-3" cx="78.33" cy="45.55" r="1.39"/>
          <circle class="cls-3" cx="84.41" cy="45.55" r="1.39"/>
          <circle class="cls-3" cx="90.49" cy="45.55" r="1.39"/>
        </g>
      </g>
      <circle class="cls-8" cx="110.12" cy="119.85" r="1.65"/>
      <circle class="cls-8" cx="101.45" cy="106.32" r="1.86"/>
      <g>
        <g>
          <g>
            <path class="cls-28" d="m235.37,206.02c3.94-7.71,9.39-14.97,16.98-19.13,7.14-3.92,15.58-4.8,23.02-8.12,3.43-1.53,6.63-3.58,9.45-6.05-1.08,6.94-2.22,14.03-5.53,20.23-2.45,4.58-6.05,8.61-7.49,13.6"/>
            <path class="cls-5" d="m283.19,175.58c-2.87,4.59-6.22,8.73-10.19,12.4-3.67,3.39-7.69,6.37-11.48,9.62-.1-3.46-.46-6.91-1.1-10.31-.1-.52-.89-.3-.79.22.64,3.46,1,6.96,1.08,10.48,0,.1.05.16.1.22-.36.31-.72.61-1.07.93-2.33,2.12-4.44,4.47-6.02,7.21-.26.46.44.87.71.41,2.92-5.08,7.67-8.62,12.16-12.22,1.06-.85,2.13-1.72,3.18-2.6.07.02.12.06.21.04,2.6-.51,5.22-.9,7.85-1.17.52-.05.52-.87,0-.82-2.34.24-4.67.59-6.98,1.01,2.74-2.36,5.39-4.84,7.72-7.59,1.98-2.33,3.73-4.83,5.34-7.42.28-.45-.43-.86-.71-.41Z"/>
          </g>
          <g>
            <path class="cls-19" d="m157.27,161.39c-.81-8.62-3.18-17.38-8.68-24.06-5.18-6.29-12.69-10.23-18.37-16.07-2.62-2.69-4.83-5.78-6.54-9.12-1.57,6.85-3.14,13.86-2.36,20.84.58,5.16,2.43,10.24,1.91,15.4"/>
            <path class="cls-5" d="m124.14,115.4c.96,5.33,2.54,10.41,4.87,15.3,2.15,4.51,4.79,8.77,7.1,13.19,1.37-3.18,2.99-6.25,4.84-9.17.28-.44.93.05.65.49-1.88,2.97-3.51,6.09-4.89,9.33-.04.09-.11.13-.18.17.22.42.45.83.65,1.26,1.38,2.83,2.47,5.8,2.92,8.93.08.52-.73.64-.81.12-.83-5.8-3.93-10.85-6.76-15.86-.67-1.19-1.34-2.38-1.99-3.59-.07,0-.14,0-.21-.04-2.23-1.43-4.51-2.77-6.86-3.99-.46-.24-.16-1,.3-.76,2.09,1.09,4.12,2.28,6.11,3.53-1.67-3.21-3.21-6.49-4.36-9.91-.97-2.89-1.67-5.87-2.21-8.87-.09-.52.72-.64.81-.12Z"/>
          </g>
          <g>
            <path class="cls-12" d="m199.22,206.44c1.75-13.93,8.18-27.24,18.01-37.26,7.19-7.33,16.05-12.87,23.11-20.32,8.13-8.57,13.65-19.59,15.66-31.23,9.19,19.32,9.78,42.54,1.59,62.31-3.76,9.07-9.28,17.48-11.62,27.03"/>
            <g class="cls-10">
              <path class="cls-3" d="m233.28,158.67c-.57,6.51.08,13.09.44,19.6.03.52.85.53.82,0-.37-6.51-1.01-13.09-.44-19.6.05-.52-.77-.52-.82,0h0Z"/>
              <path class="cls-3" d="m241.59,167.97c5.09-2.19,10.18-4.38,15.27-6.57.48-.21.07-.91-.41-.71-5.09,2.19-10.18,4.38-15.27,6.57-.48.21-.07.91.41.71h0Z"/>
              <path class="cls-3" d="m226.04,190.54c5.09-2.19,10.18-4.38,15.27-6.57.48-.21.07-.91-.41-.71-5.09,2.19-10.18,4.38-15.27,6.57-.48.21-.07.91.41.71h0Z"/>
              <path class="cls-3" d="m216.68,176.4c.86,6.71,2.39,13.3,4.6,19.69.17.5.96.28.79-.22-2.18-6.32-3.72-12.84-4.57-19.47-.07-.52-.89-.52-.82,0h0Z"/>
              <path class="cls-3" d="m216.77,207.11c4.08-11.77,12.68-21.08,19.62-31.19,3.78-5.51,6.8-11.41,9.78-17.38,2.84-5.7,5.68-11.43,7.77-17.46,2.33-6.71,3.54-13.72,3.12-20.83-.03-.52-.85-.53-.82,0,.38,6.45-.58,12.83-2.55,18.98s-4.73,11.87-7.57,17.58c-2.98,6-5.94,12-9.67,17.57-3.38,5.05-7.17,9.82-10.7,14.76-3.93,5.52-7.53,11.31-9.76,17.75-.17.5.62.71.79.22h0Z"/>
            </g>
          </g>
          <g>
            <path class="cls-22" d="m156.78,206.44c-1.75-13.93-8.18-27.24-18.01-37.26-7.19-7.33-16.05-12.87-23.11-20.32-8.13-8.57-13.65-19.59-15.66-31.23-9.19,19.32-9.78,42.54-1.59,62.31,3.76,9.07,9.28,17.48,11.62,27.03"/>
            <g class="cls-10">
              <path class="cls-3" d="m122.72,158.67c.57,6.51-.08,13.09-.44,19.6-.03.52-.85.53-.82,0,.37-6.51,1.01-13.09.44-19.6-.05-.52.77-.52.82,0h0Z"/>
              <path class="cls-3" d="m114.41,167.97c-5.09-2.19-10.18-4.38-15.27-6.57-.48-.21-.07-.91.41-.71,5.09,2.19,10.18,4.38,15.27,6.57.48.21.07.91-.41.71h0Z"/>
              <path class="cls-3" d="m129.96,190.54c-5.09-2.19-10.18-4.38-15.27-6.57-.48-.21-.07-.91.41-.71,5.09,2.19,10.18,4.38,15.27,6.57.48.21.07.91-.41.71h0Z"/>
              <path class="cls-3" d="m139.32,176.4c-.86,6.71-2.39,13.3-4.6,19.69-.17.5-.96.28-.79-.22,2.18-6.32,3.72-12.84,4.57-19.47.07-.52.89-.52.82,0h0Z"/>
              <path class="cls-3" d="m139.23,207.11c-4.08-11.77-12.68-21.08-19.62-31.19-3.78-5.51-6.8-11.41-9.78-17.38-2.84-5.7-5.68-11.43-7.77-17.46-2.33-6.71-3.54-13.72-3.12-20.83.03-.52.85-.53.82,0-.38,6.45.58,12.83,2.55,18.98,1.95,6.09,4.73,11.87,7.57,17.58,2.98,6,5.94,12,9.67,17.57,3.38,5.05,7.17,9.82,10.7,14.76,3.93,5.52,7.53,11.31,9.76,17.75.17.5-.62.71-.79.22h0Z"/>
            </g>
          </g>
        </g>
        <g>
          <circle class="cls-9" cx="85.16" cy="118.32" r=".76"/>
          <circle class="cls-9" cx="110.12" cy="119.91" r="1.65"/>
          <circle class="cls-7" cx="101.45" cy="106.37" r="1.86"/>
        </g>
        <g>
          <circle class="cls-6" cx="283.97" cy="203.06" r=".76"/>
          <circle class="cls-6" cx="288.92" cy="189.63" r="1.65"/>
          <circle class="cls-6" cx="277.2" cy="168.01" r="1.65"/>
        </g>
        <g>
          <circle class="cls-6" cx="227.92" cy="135.01" r=".76"/>
          <circle class="cls-6" cx="246.34" cy="118.09" r="1.65"/>
          <circle class="cls-6" cx="230.57" cy="114.98" r="1.86"/>
        </g>
      </g>
      <g class="cls-16">
        <g>
          <g>
            <path class="cls-21" d="m73.17,149.7c-.39-.81-.84-1.86-1.23-2.82-.4-.99-.78-2-1.14-3.02l-7.07,2.51c.4,1.11.81,2.21,1.25,3.31.46,1.12.89,2.15,1.48,3.38l6.71-3.36Z"/>
            <polygon class="cls-17" points="67.62 146.85 68.32 146.59 67.89 145.42 67.19 145.67 67.62 146.85"/>
            <polygon class="cls-17" points="68.46 148.96 69.15 148.67 68.68 147.51 67.99 147.79 68.46 148.96"/>
            <polygon class="cls-17" points="69.36 151.02 70.04 150.71 69.53 149.57 68.84 149.87 69.36 151.02"/>
          </g>
          <g>
            <path class="cls-21" d="m70.8,143.86c-.72-2.03-1.36-4.11-1.94-6.2l-7.23,1.99c.63,2.26,1.31,4.5,2.1,6.72l7.07-2.51Z"/>
            <polygon class="cls-17" points="65.47 140.42 66.19 140.21 65.84 139.01 65.12 139.21 65.47 140.42"/>
            <polygon class="cls-17" points="66.14 142.58 66.85 142.35 66.47 141.16 65.76 141.38 66.14 142.58"/>
            <polygon class="cls-17" points="66.85 144.71 67.56 144.47 67.15 143.29 66.44 143.52 66.85 144.71"/>
          </g>
          <g>
            <path class="cls-21" d="m68.86,137.66c-.58-2.09-1.07-4.21-1.51-6.33l-7.35,1.49c.47,2.29,1,4.58,1.63,6.83l7.23-1.99Z"/>
            <polygon class="cls-17" points="63.78 133.85 64.52 133.69 64.26 132.46 63.52 132.61 63.78 133.85"/>
            <polygon class="cls-17" points="64.3 136.05 65.03 135.87 64.73 134.65 64 134.82 64.3 136.05"/>
            <polygon class="cls-17" points="64.86 138.23 65.58 138.03 65.26 136.83 64.53 137.01 64.86 138.23"/>
          </g>
          <g>
            <path class="cls-21" d="m67.35,131.33c-.22-1.06-.4-2.13-.59-3.2-.16-1.07-.34-2.14-.47-3.22l-7.44.97c.15,1.16.34,2.32.51,3.48.21,1.15.41,2.31.64,3.45l7.35-1.49Z"/>
            <polygon class="cls-17" points="62.56 127.17 63.3 127.06 63.11 125.83 62.37 125.93 62.56 127.17"/>
            <path class="cls-17" d="m62.91,129.41l.74-.13c-.08-.41-.14-.82-.2-1.23l-.74.12c.06.42.13.83.21,1.24Z"/>
            <polygon class="cls-17" points="63.31 131.62 64.05 131.48 63.83 130.25 63.09 130.38 63.31 131.62"/>
          </g>
          <g>
            <path class="cls-21" d="m66.29,124.91c-.27-2.15-.48-4.31-.61-6.47l-7.49.44c.13,2.34.36,4.68.66,7l7.44-.97Z"/>
            <path class="cls-17" d="m61.79,120.43l.75-.06c-.03-.42-.08-.83-.1-1.25l-.75.05c.02.42.07.84.1,1.26Z"/>
            <polygon class="cls-17" points="61.98 122.68 62.73 122.61 62.62 121.36 61.88 121.43 61.98 122.68"/>
            <polygon class="cls-17" points="62.25 124.92 62.99 124.83 62.84 123.59 62.1 123.67 62.25 124.92"/>
          </g>
          <g>
            <path class="cls-21" d="m65.68,118.44c-.13-2.16-.17-4.33-.14-6.49l-7.5-.12c-.03,2.35.01,4.7.15,7.04l7.49-.44Z"/>
            <polygon class="cls-17" points="61.52 113.65 62.27 113.65 62.26 112.4 61.51 112.39 61.52 113.65"/>
            <polygon class="cls-17" points="61.54 115.91 62.29 115.89 62.28 114.64 61.53 114.65 61.54 115.91"/>
            <polygon class="cls-17" points="61.65 118.16 62.4 118.12 62.33 116.87 61.59 116.9 61.65 118.16"/>
          </g>
          <g>
            <path class="cls-21" d="m65.54,111.96c.04-1.08.04-2.16.11-3.24l.23-3.23-7.47-.7-.25,3.52c-.07,1.17-.08,2.35-.12,3.52l7.5.12Z"/>
            <polygon class="cls-17" points="61.75 106.87 62.5 106.93 62.59 105.68 61.84 105.61 61.75 106.87"/>
            <path class="cls-17" d="m61.6,109.13l.75.04c.02-.42.05-.83.08-1.25l-.75-.05c-.03.42-.07.84-.08,1.26Z"/>
            <polygon class="cls-17" points="61.54 111.38 62.29 111.39 62.32 110.15 61.57 110.12 61.54 111.38"/>
          </g>
          <g>
            <polygon class="cls-21" points="65.88 105.49 66.25 102.27 66.75 99.08 59.36 97.79 58.81 101.28 58.41 104.79 65.88 105.49"/>
            <polygon class="cls-17" points="62.51 100.13 63.25 100.24 63.45 99.01 62.71 98.88 62.51 100.13"/>
            <path class="cls-17" d="m62.2,102.37l.74.09c.05-.41.08-.83.16-1.24l-.74-.1c-.07.41-.11.83-.16,1.25Z"/>
            <polygon class="cls-17" points="61.94 104.6 62.69 104.68 62.83 103.44 62.08 103.35 61.94 104.6"/>
          </g>
          <g>
            <path class="cls-21" d="m66.75,99.08c.4-2.12.8-4.23,1.38-6.31l-7.26-1.89c-.63,2.27-1.08,4.59-1.51,6.91l7.39,1.29Z"/>
            <polygon class="cls-17" points="63.8 93.46 64.53 93.64 64.84 92.43 64.11 92.24 63.8 93.46"/>
            <polygon class="cls-17" points="63.32 95.67 64.06 95.83 64.31 94.6 63.58 94.44 63.32 95.67"/>
            <path class="cls-17" d="m62.87,97.88l.74.13c.07-.41.16-.82.25-1.22l-.74-.14c-.08.41-.18.82-.25,1.24Z"/>
          </g>
          <g>
            <path class="cls-21" d="m68.13,92.77c.26-1.04.53-2.09.88-3.11.34-1.02.61-2.06.99-3.07l-7.08-2.48c-.42,1.1-.72,2.24-1.09,3.37-.37,1.12-.67,2.26-.96,3.4l7.26,1.89Z"/>
            <polygon class="cls-17" points="65.65 86.93 66.36 87.17 66.74 85.98 66.03 85.73 65.65 86.93"/>
            <polygon class="cls-17" points="64.97 89.09 65.69 89.3 66.06 88.11 65.35 87.89 64.97 89.09"/>
            <polygon class="cls-17" points="64.37 91.26 65.09 91.45 65.41 90.24 64.68 90.04 64.37 91.26"/>
          </g>
          <g>
            <path class="cls-21" d="m69.99,86.59l1.12-3.03c.4-1,.85-1.98,1.27-2.97l-6.85-3.05c-.46,1.08-.95,2.16-1.39,3.25l-1.23,3.32,7.08,2.48Z"/>
            <polygon class="cls-17" points="68.02 80.58 68.71 80.87 69.21 79.72 68.52 79.42 68.02 80.58"/>
            <path class="cls-17" d="m67.17,82.67l.7.27c.15-.39.28-.79.45-1.16l-.69-.28c-.18.38-.3.78-.46,1.17Z"/>
            <polygon class="cls-17" points="66.38 84.78 67.09 85.03 67.53 83.86 66.82 83.6 66.38 84.78"/>
          </g>
          <g>
            <path class="cls-21" d="m72.39,80.59c.4-1,.9-1.96,1.38-2.92.49-.96.92-1.95,1.48-2.87l-6.58-3.59c-.61,1.01-1.08,2.09-1.62,3.14-.53,1.05-1.06,2.1-1.51,3.2l6.85,3.05Z"/>
            <path class="cls-17" d="m70.9,74.43l.67.35c.19-.37.36-.75.58-1.11l-.66-.36c-.22.36-.39.74-.58,1.12Z"/>
            <polygon class="cls-17" points="69.89 76.45 70.56 76.78 71.12 75.66 70.45 75.32 69.89 76.45"/>
            <path class="cls-17" d="m68.92,78.49l.68.31c.16-.38.32-.77.52-1.14l-.68-.32c-.2.37-.36.76-.52,1.15Z"/>
          </g>
          <g>
            <path class="cls-21" d="m75.25,74.8l1.6-2.82c.55-.93,1.16-1.82,1.73-2.74l-6.28-4.09c-.63.99-1.28,1.97-1.89,2.98l-1.74,3.07,6.58,3.59Z"/>
            <polygon class="cls-17" points="74.27 68.54 74.9 68.93 75.58 67.88 74.95 67.48 74.27 68.54"/>
            <path class="cls-17" d="m73.09,70.47l.65.38c.21-.36.4-.73.63-1.08l-.64-.39c-.23.35-.42.73-.64,1.09Z"/>
            <polygon class="cls-17" points="71.98 72.43 72.64 72.79 73.25 71.7 72.6 71.33 71.98 72.43"/>
          </g>
          <g>
            <polygon class="cls-21" points="78.58 69.25 79.46 67.88 80.4 66.56 82.3 63.93 76.34 59.38 74.28 62.24 73.25 63.67 72.3 65.15 78.58 69.25"/>
            <polygon class="cls-17" points="78.08 62.92 78.68 63.37 79.41 62.35 78.81 61.9 78.08 62.92"/>
            <polygon class="cls-17" points="76.76 64.76 77.37 65.18 78.1 64.17 77.49 63.73 76.76 64.76"/>
            <polygon class="cls-17" points="75.5 66.62 76.12 67.04 76.8 65.98 76.18 65.56 75.5 66.62"/>
          </g>
        </g>
      </g>
      <g class="cls-16">
        <g>
          <g>
            <path class="cls-21" d="m104.46,40.83l.54-.45c.19-.16.41-.33.62-.49.42-.33.85-.65,1.29-.97.87-.65,1.79-1.25,2.7-1.86l-4.1-6.28c-1.01.68-2.03,1.35-3.02,2.09-.5.36-.99.73-1.49,1.12l-.74.59c-.25.21-.48.39-.79.66l4.99,5.6Z"/>
            <polygon class="cls-17" points="105.92 34.71 106.34 35.33 107.4 34.61 106.99 33.98 105.92 34.71"/>
            <polygon class="cls-17" points="104.03 36.06 104.47 36.66 105.51 35.91 105.07 35.3 104.03 36.06"/>
            <path class="cls-17" d="m102.2,37.49l.48.58c.32-.27.66-.54,1-.79l-.46-.59c-.34.26-.68.53-1.02.81Z"/>
          </g>
          <g>
            <path class="cls-21" d="m109.61,37.06c1.86-1.19,3.75-2.33,5.71-3.36l-3.55-6.61c-2.14,1.13-4.21,2.38-6.26,3.69l4.1,6.28Z"/>
            <path class="cls-17" d="m111.83,31.02l.37.65c.37-.22.74-.43,1.12-.62l-.36-.66c-.38.2-.76.4-1.13.63Z"/>
            <polygon class="cls-17" points="109.83 32.19 110.21 32.83 111.32 32.19 110.94 31.54 109.83 32.19"/>
            <polygon class="cls-17" points="107.86 33.41 108.27 34.05 109.35 33.36 108.96 32.72 107.86 33.41"/>
          </g>
          <g>
            <path class="cls-21" d="m115.32,33.69c1.95-1.06,3.95-2.01,5.98-2.91l-3.01-6.87c-2.2.98-4.39,2.02-6.51,3.17l3.55,6.61Z"/>
            <path class="cls-17" d="m118.04,27.85l.32.68c.39-.18.77-.37,1.16-.54l-.31-.69c-.4.17-.78.37-1.17.55Z"/>
            <polygon class="cls-17" points="115.94 28.85 116.28 29.52 117.44 28.97 117.11 28.29 115.94 28.85"/>
            <polygon class="cls-17" points="113.89 29.91 114.24 30.57 115.37 29.97 115.03 29.31 113.89 29.91"/>
          </g>
          <g>
            <polygon class="cls-21" points="121.3 30.78 124.37 29.49 127.5 28.35 125.02 21.27 121.62 22.51 118.29 23.92 121.3 30.78"/>
            <polygon class="cls-17" points="124.47 25.18 124.74 25.88 125.94 25.44 125.69 24.74 124.47 25.18"/>
            <path class="cls-17" d="m122.31,26.01l.28.7c.39-.17.79-.33,1.19-.47l-.27-.7c-.41.14-.81.3-1.2.47Z"/>
            <polygon class="cls-17" points="120.17 26.9 120.47 27.59 121.65 27.09 121.37 26.4 120.17 26.9"/>
          </g>
          <g>
            <path class="cls-21" d="m127.5,28.35c1.03-.41,2.11-.69,3.17-1.03,1.06-.32,2.11-.69,3.2-.93l-1.93-7.25c-1.18.27-2.32.66-3.47,1.01-1.15.37-2.32.68-3.44,1.12l2.48,7.08Z"/>
            <path class="cls-17" d="m131.09,22.99l.21.72c.41-.13.82-.25,1.23-.35l-.2-.72c-.42.1-.83.22-1.24.35Z"/>
            <polygon class="cls-17" points="128.87 23.67 129.1 24.39 130.32 24.01 130.11 23.29 128.87 23.67"/>
            <path class="cls-17" d="m126.67,24.38l.24.71c.4-.15.81-.28,1.22-.4l-.23-.71c-.41.13-.83.25-1.23.41Z"/>
          </g>
          <g>
            <path class="cls-21" d="m133.87,26.39l3.23-.81c1.08-.26,2.18-.43,3.27-.65l-1.38-7.37c-1.18.24-2.37.42-3.55.71l-3.51.88,1.93,7.25Z"/>
            <polygon class="cls-17" points="137.86 21.33 138.01 22.06 139.27 21.82 139.13 21.09 137.86 21.33"/>
            <path class="cls-17" d="m135.59,21.83l.17.73c.42-.1.83-.22,1.25-.3l-.16-.73c-.42.09-.84.2-1.26.31Z"/>
            <polygon class="cls-17" points="133.35 22.39 133.53 23.11 134.78 22.8 134.6 22.07 133.35 22.39"/>
          </g>
          <g>
            <path class="cls-21" d="m140.37,24.94c2.17-.48,4.39-.69,6.59-.99l-.82-7.45c-2.39.32-4.79.56-7.15,1.07l1.38,7.37Z"/>
            <polygon class="cls-17" points="144.73 20.19 144.83 20.93 146.1 20.77 146.01 20.02 144.73 20.19"/>
            <polygon class="cls-17" points="142.43 20.49 142.54 21.23 143.82 21.06 143.71 20.32 142.43 20.49"/>
            <polygon class="cls-17" points="140.15 20.89 140.28 21.63 141.55 21.39 141.42 20.65 140.15 20.89"/>
          </g>
          <g>
            <path class="cls-21" d="m146.96,23.95c1.1-.18,2.21-.2,3.32-.28l3.33-.22-.26-7.49-3.61.24c-1.2.09-2.41.12-3.6.31l.82,7.45Z"/>
            <polygon class="cls-17" points="151.67 19.55 151.71 20.3 152.99 20.21 152.96 19.46 151.67 19.55"/>
            <polygon class="cls-17" points="149.35 19.7 149.41 20.45 150.69 20.37 150.64 19.62 149.35 19.7"/>
            <path class="cls-17" d="m147.05,19.89l.08.75c.42-.07.85-.09,1.28-.12l-.07-.75c-.43.03-.86.05-1.29.12Z"/>
          </g>
        </g>
      </g>
      <g class="cls-16">
        <g>
          <g>
            <path class="cls-21" d="m186.96,21.62c.86-.03,1.95-.02,2.95,0,1.02.04,2.05.09,3.08.15l.52-7.48c-1.13-.07-2.25-.13-3.39-.17-1.16-.03-2.23-.05-3.53,0l.37,7.49Z"/>
            <polygon class="cls-17" points="191.59 17.68 191.55 18.43 192.74 18.49 192.79 17.74 191.59 17.68"/>
            <path class="cls-17" d="m189.42,17.6v.75c.38.01.78,0,1.18.03l.03-.75c-.4-.02-.81-.02-1.21-.03Z"/>
            <polygon class="cls-17" points="187.26 17.59 187.28 18.34 188.47 18.33 188.47 17.58 187.26 17.59"/>
          </g>
          <g>
            <path class="cls-21" d="m192.99,21.78c1.03.09,2.06.16,3.1.27l3.09.38,1.03-7.43-3.34-.41c-1.12-.12-2.24-.2-3.36-.3l-.52,7.48Z"/>
            <polygon class="cls-17" points="198.06 18.25 197.97 18.99 199.16 19.14 199.26 18.4 198.06 18.25"/>
            <path class="cls-17" d="m195.91,18l-.07.75c.4.03.79.09,1.19.14l.08-.75c-.4-.04-.8-.11-1.2-.14Z"/>
            <polygon class="cls-17" points="193.76 17.82 193.71 18.57 194.9 18.67 194.97 17.92 193.76 17.82"/>
          </g>
          <g>
            <path class="cls-21" d="m199.18,22.43c2.05.34,4.11.62,6.14,1.08l1.51-7.34c-2.19-.5-4.41-.81-6.62-1.17l-1.03,7.43Z"/>
            <polygon class="cls-17" points="204.48 19.24 204.35 19.97 205.52 20.22 205.67 19.48 204.48 19.24"/>
            <polygon class="cls-17" points="202.35 18.87 202.23 19.61 203.41 19.8 203.54 19.07 202.35 18.87"/>
            <polygon class="cls-17" points="200.22 18.53 200.12 19.27 201.3 19.46 201.41 18.72 200.22 18.53"/>
          </g>
          <g>
            <path class="cls-21" d="m205.32,23.51c1.01.23,2.04.39,3.05.67l3.02.79,1.99-7.23-3.25-.85c-1.08-.29-2.19-.48-3.28-.72l-1.51,7.34Z"/>
            <polygon class="cls-17" points="210.82 20.67 210.64 21.4 211.79 21.7 211.99 20.97 210.82 20.67"/>
            <polygon class="cls-17" points="208.73 20.13 208.56 20.86 209.72 21.16 209.9 20.43 208.73 20.13"/>
            <polygon class="cls-17" points="206.62 19.68 206.46 20.42 207.63 20.66 207.8 19.93 206.62 19.68"/>
          </g>
          <g>
            <path class="cls-21" d="m211.39,24.97c1.01.24,2,.57,2.99.89l2.97.94,2.46-7.09-3.21-1.02c-1.07-.34-2.13-.7-3.23-.95l-1.99,7.23Z"/>
            <polygon class="cls-17" points="217.06 22.49 216.83 23.2 217.97 23.57 218.21 22.86 217.06 22.49"/>
            <polygon class="cls-17" points="215 21.84 214.78 22.55 215.92 22.92 216.15 22.2 215 21.84"/>
            <path class="cls-17" d="m212.93,21.22l-.2.72c.39.1.77.2,1.15.33l.21-.72c-.38-.13-.77-.23-1.16-.33Z"/>
          </g>
          <g>
            <path class="cls-21" d="m217.35,26.79c1.94.75,3.89,1.45,5.8,2.25l2.93-6.9c-2.07-.87-4.18-1.63-6.28-2.44l-2.46,7.09Z"/>
            <path class="cls-17" d="m223.17,24.71l-.28.7c.37.15.75.28,1.12.43l.29-.69c-.37-.16-.75-.29-1.12-.44Z"/>
            <polygon class="cls-17" points="221.14 23.94 220.88 24.64 222 25.07 222.27 24.37 221.14 23.94"/>
            <polygon class="cls-17" points="219.13 23.17 218.88 23.88 220 24.3 220.26 23.6 219.13 23.17"/>
          </g>
          <g>
            <path class="cls-21" d="m223.16,29.05l2.83,1.29c.94.44,1.9.83,2.8,1.35l3.41-6.68c-.98-.56-2.02-.99-3.04-1.47l-3.07-1.4-2.93,6.9Z"/>
            <path class="cls-17" d="m229.11,27.35l-.33.67c.37.16.73.33,1.07.53l.34-.67c-.35-.2-.71-.38-1.08-.54Z"/>
            <polygon class="cls-17" points="227.14 26.45 226.82 27.13 227.91 27.63 228.24 26.95 227.14 26.45"/>
            <polygon class="cls-17" points="225.18 25.55 224.88 26.24 225.97 26.74 226.27 26.06 225.18 25.55"/>
          </g>
          <g>
            <path class="cls-21" d="m228.78,31.69l2.73,1.48c.91.49,1.83.96,2.69,1.55l3.89-6.41c-.93-.64-1.93-1.15-2.92-1.69l-2.97-1.61-3.41,6.68Z"/>
            <path class="cls-17" d="m234.84,30.4l-.38.65c.36.18.69.4,1.03.62l.39-.64c-.34-.22-.67-.44-1.03-.62Z"/>
            <polygon class="cls-17" points="232.94 29.37 232.58 30.03 233.63 30.6 234 29.95 232.94 29.37"/>
            <polygon class="cls-17" points="231.04 28.35 230.7 29.01 231.75 29.58 232.1 28.92 231.04 28.35"/>
          </g>
          <g>
            <path class="cls-21" d="m234.2,34.72l2.61,1.67c.87.56,1.76,1.08,2.57,1.74l4.36-6.1c-.88-.71-1.85-1.28-2.8-1.9l-2.85-1.82-3.89,6.41Z"/>
            <path class="cls-17" d="m240.34,33.88l-.42.62c.34.21.67.44.98.68l.43-.61c-.32-.25-.64-.48-.99-.69Z"/>
            <polygon class="cls-17" points="238.51 32.71 238.11 33.34 239.11 33.99 239.53 33.36 238.51 32.71"/>
            <polygon class="cls-17" points="236.7 31.55 236.3 32.19 237.31 32.83 237.71 32.2 236.7 31.55"/>
          </g>
          <g>
            <path class="cls-21" d="m239.38,38.13c1.63,1.27,3.33,2.45,4.91,3.78l4.81-5.76c-1.72-1.45-3.57-2.75-5.36-4.13l-4.36,6.1Z"/>
            <path class="cls-17" d="m245.55,37.76l-.47.59c.31.25.65.47.94.74l.48-.58c-.3-.27-.64-.49-.95-.74Z"/>
            <polygon class="cls-17" points="243.82 36.46 243.37 37.05 244.33 37.78 244.79 37.19 243.82 36.46"/>
            <polygon class="cls-17" points="242.1 35.16 241.66 35.76 242.62 36.49 243.07 35.88 242.1 35.16"/>
          </g>
          <g>
            <polygon class="cls-21" points="244.29 41.91 248.91 46.04 254.14 40.66 249.09 36.15 244.29 41.91"/>
            <polygon class="cls-17" points="250.45 42.03 249.94 42.58 250.83 43.38 251.35 42.84 250.45 42.03"/>
            <polygon class="cls-17" points="248.84 40.59 248.34 41.15 249.23 41.95 249.74 41.4 248.84 40.59"/>
            <polygon class="cls-17" points="247.23 39.15 246.74 39.73 247.64 40.52 248.13 39.96 247.23 39.15"/>
          </g>
        </g>
      </g>
      <g class="cls-16">
        <g>
          <g>
            <path class="cls-21" d="m277.54,82.06c.4.78.89,1.81,1.29,2.76.42.97.82,1.96,1.2,2.96l7.01-2.66c-.42-1.1-.86-2.19-1.33-3.28-.48-1.11-.94-2.12-1.57-3.33l-6.6,3.56Z"/>
            <path class="cls-17" d="m283.14,84.72l-.69.28c.16.38.31.77.46,1.15l.7-.27c-.15-.39-.3-.78-.46-1.17Z"/>
            <polygon class="cls-17" points="282.26 82.65 281.58 82.95 282.07 84.09 282.76 83.8 282.26 82.65"/>
            <path class="cls-17" d="m281.31,80.61l-.67.34c.18.37.36.74.54,1.11l.68-.32c-.17-.38-.36-.76-.55-1.13Z"/>
          </g>
          <g>
            <path class="cls-21" d="m280.03,87.78c.75,2,1.45,4.03,2.03,6.09l7.2-2.09c-.64-2.25-1.4-4.47-2.22-6.67l-7.01,2.66Z"/>
            <polygon class="cls-17" points="285.42 91.07 284.7 91.3 285.05 92.49 285.77 92.28 285.42 91.07"/>
            <polygon class="cls-17" points="284.72 88.94 284.01 89.18 284.4 90.36 285.11 90.13 284.72 88.94"/>
            <polygon class="cls-17" points="283.97 86.83 283.26 87.09 283.68 88.26 284.39 88.01 283.97 86.83"/>
          </g>
          <g>
            <path class="cls-21" d="m282.06,93.87c.6,2.06,1.11,4.14,1.54,6.24l7.35-1.51c-.47-2.3-1.03-4.57-1.68-6.82l-7.2,2.09Z"/>
            <polygon class="cls-17" points="287.16 97.59 286.43 97.76 286.7 98.97 287.44 98.82 287.16 97.59"/>
            <path class="cls-17" d="m286.64,95.41l-.73.19c.11.4.21.8.3,1.21l.73-.17c-.09-.41-.19-.81-.3-1.22Z"/>
            <polygon class="cls-17" points="286.06 93.24 285.34 93.45 285.66 94.65 286.39 94.45 286.06 93.24"/>
          </g>
          <g>
            <path class="cls-21" d="m283.6,100.11c.42,2.1.79,4.21,1.03,6.34l7.45-.9c-.26-2.34-.66-4.65-1.12-6.95l-7.35,1.51Z"/>
            <path class="cls-17" d="m288.39,104.23l-.74.11c.07.41.11.82.16,1.23l.74-.09c-.05-.41-.09-.83-.16-1.24Z"/>
            <polygon class="cls-17" points="288.04 102.01 287.3 102.14 287.5 103.36 288.24 103.25 288.04 102.01"/>
            <polygon class="cls-17" points="287.63 99.81 286.89 99.95 287.13 101.17 287.87 101.04 287.63 99.81"/>
          </g>
          <g>
            <path class="cls-21" d="m284.62,106.45c.14,1.06.25,2.12.31,3.19l.12,1.6.05,1.6,7.5-.24-.06-1.77-.13-1.76c-.07-1.18-.2-2.34-.34-3.51l-7.45.9Z"/>
            <polygon class="cls-17" points="289.06 110.95 288.32 110.99 288.36 112.23 289.11 112.2 289.06 110.95"/>
            <polygon class="cls-17" points="288.89 108.71 288.15 108.77 288.24 110.01 288.99 109.96 288.89 108.71"/>
            <polygon class="cls-17" points="288.67 106.48 287.93 106.56 288.07 107.8 288.82 107.72 288.67 106.48"/>
          </g>
          <g>
            <path class="cls-21" d="m285.11,112.83l.05,1.6-.02,1.6c0,1.06-.03,2.13-.12,3.19l7.49.45c.1-1.18.12-2.36.13-3.54l.02-1.77-.06-1.77-7.5.24Z"/>
            <path class="cls-17" d="m289.13,117.7l-.75-.03c0,.41-.05.83-.07,1.24l.75.04c.02-.42.07-.83.07-1.25Z"/>
            <polygon class="cls-17" points="289.17 115.45 288.42 115.45 288.4 116.69 289.15 116.71 289.17 115.45"/>
            <polygon class="cls-17" points="289.14 113.21 288.39 113.23 288.43 114.47 289.18 114.47 289.14 113.21"/>
          </g>
          <g>
            <path class="cls-21" d="m285.03,119.21c-.07,1.06-.12,2.12-.27,3.17-.14,1.05-.21,2.11-.42,3.15l7.41,1.17c.23-1.16.31-2.35.47-3.52.16-1.17.22-2.35.3-3.53l-7.49-.45Z"/>
            <path class="cls-17" d="m288.56,124.43l-.74-.1c-.05.41-.09.82-.17,1.23l.74.11c.08-.41.12-.83.17-1.24Z"/>
            <polygon class="cls-17" points="288.82 122.2 288.08 122.12 287.93 123.36 288.68 123.44 288.82 122.2"/>
            <polygon class="cls-17" points="289 119.96 288.25 119.91 288.17 121.15 288.92 121.21 289 119.96"/>
          </g>
          <g>
            <path class="cls-21" d="m284.34,125.54c-.19,1.04-.33,2.09-.57,3.13l-.72,3.09,7.25,1.91.81-3.46c.26-1.16.42-2.33.64-3.5l-7.41-1.17Z"/>
            <polygon class="cls-17" points="287.34 131.07 286.61 130.9 286.32 132.11 287.05 132.29 287.34 131.07"/>
            <path class="cls-17" d="m287.84,128.88l-.74-.15c-.08.41-.18.81-.27,1.21l.73.16c.09-.41.2-.81.28-1.22Z"/>
            <polygon class="cls-17" points="288.22 126.67 287.48 126.55 287.27 127.77 288.01 127.91 288.22 126.67"/>
          </g>
          <g>
            <path class="cls-21" d="m283.06,131.76l-.9,3.04c-.29,1.02-.71,1.99-1.05,2.99l7.02,2.65c.39-1.12.85-2.21,1.18-3.36l1.01-3.41-7.25-1.91Z"/>
            <polygon class="cls-17" points="285.46 137.56 284.75 137.31 284.32 138.48 285.03 138.74 285.46 137.56"/>
            <polygon class="cls-17" points="286.15 135.42 285.44 135.2 285.09 136.39 285.8 136.62 286.15 135.42"/>
            <polygon class="cls-17" points="286.79 133.27 286.07 133.07 285.72 134.26 286.44 134.47 286.79 133.27"/>
          </g>
          <g>
            <path class="cls-21" d="m281.1,137.79c-.34,1-.77,1.97-1.2,2.94-.44.96-.82,1.95-1.34,2.88l6.71,3.35c.57-1.04,1.01-2.14,1.5-3.22.48-1.08.96-2.17,1.34-3.29l-7.02-2.65Z"/>
            <path class="cls-17" d="m282.92,143.82l-.68-.32c-.16.38-.33.76-.53,1.12l.67.33c.2-.37.38-.75.54-1.13Z"/>
            <polygon class="cls-17" points="283.83 141.76 283.14 141.47 282.64 142.6 283.32 142.91 283.83 141.76"/>
            <path class="cls-17" d="m284.68,139.69l-.7-.27c-.15.39-.27.78-.45,1.16l.69.28c.18-.38.3-.78.45-1.17Z"/>
          </g>
          <g>
            <polygon class="cls-21" points="278.56 143.6 277.09 146.42 275.44 149.14 281.79 153.13 283.63 150.1 285.27 146.95 278.56 143.6"/>
            <polygon class="cls-17" points="279.75 149.78 279.11 149.4 278.46 150.46 279.1 150.85 279.75 149.78"/>
            <path class="cls-17" d="m280.88,147.84l-.66-.36c-.18.37-.39.73-.61,1.08l.65.37c.22-.36.43-.71.62-1.09Z"/>
            <polygon class="cls-17" points="281.92 145.85 281.25 145.51 280.68 146.61 281.34 146.96 281.92 145.85"/>
          </g>
          <g>
            <path class="cls-21" d="m275.44,149.14c-.52.93-1.17,1.77-1.77,2.65-.63.86-1.18,1.77-1.87,2.58l5.95,4.56c.76-.9,1.38-1.91,2.08-2.86.67-.97,1.38-1.92,1.97-2.95l-6.35-3.99Z"/>
            <path class="cls-17" d="m276.04,155.42l-.61-.44c-.24.34-.46.69-.73,1l.6.45c.27-.32.5-.67.74-1.01Z"/>
            <polygon class="cls-17" points="277.33 153.58 276.71 153.15 276 154.17 276.61 154.6 277.33 153.58"/>
            <path class="cls-17" d="m278.58,151.72l-.63-.4c-.21.36-.43.7-.68,1.04l.62.41c.25-.34.48-.69.69-1.05Z"/>
          </g>
          <g>
            <path class="cls-21" d="m271.8,154.38l-2,2.5c-.66.84-1.43,1.59-2.13,2.4l5.53,5.06c.78-.88,1.61-1.71,2.34-2.63l2.21-2.76-5.95-4.56Z"/>
            <polygon class="cls-17" points="271.81 160.69 271.25 160.19 270.41 161.11 270.97 161.61 271.81 160.69"/>
            <polygon class="cls-17" points="273.27 158.97 272.69 158.49 271.91 159.46 272.48 159.95 273.27 158.97"/>
            <polygon class="cls-17" points="274.67 157.22 274.07 156.76 273.3 157.73 273.88 158.2 274.67 157.22"/>
          </g>
          <g>
            <path class="cls-21" d="m267.67,159.27c-1.4,1.62-2.98,3.08-4.52,4.58l5.12,5.48c1.68-1.63,3.4-3.22,4.94-5l-5.53-5.06Z"/>
            <polygon class="cls-17" points="267.15 165.56 266.63 165.03 265.73 165.89 266.25 166.44 267.15 165.56"/>
            <polygon class="cls-17" points="268.76 164 268.23 163.48 267.33 164.34 267.86 164.87 268.76 164"/>
            <polygon class="cls-17" points="270.29 162.36 269.74 161.85 268.9 162.77 269.44 163.29 270.29 162.36"/>
          </g>
          <g>
            <path class="cls-21" d="m263.15,163.85c-.75.77-1.6,1.44-2.41,2.15l-2.45,2.1,4.71,5.84,2.66-2.27c.88-.77,1.79-1.49,2.61-2.33l-5.12-5.48Z"/>
            <polygon class="cls-17" points="262.14 170.08 261.66 169.51 260.71 170.32 261.19 170.9 262.14 170.08"/>
            <polygon class="cls-17" points="263.84 168.62 263.35 168.06 262.4 168.87 262.89 169.44 263.84 168.62"/>
            <path class="cls-17" d="m265.52,167.14l-.51-.55c-.29.29-.6.57-.92.83l.5.56c.32-.27.63-.54.93-.84Z"/>
          </g>
        </g>
      </g>
      <g>
        <path class="cls-3" d="m183.67,115.92c-4.59,3.78-9.11,5.31-15.58,4.91-2.88-.18-4.6-.78-6.59-2.51-2.51,2.31-4.62,5.41-5.2,8.47-1.85,9.74-1.96,19.65-2.06,29.51-.17,15.71-.33,31.43-.5,47.14,0,.14,0,.29.1.41.12.13.33.18.53.21,7.36,1.27,14.94,1.7,22.44,1.27,3.38-.19,6.89-.54,10.07.42-.46-4.23.86-8.43,2.02-12.56,2.56-9.07,4.45-18.35,4.07-27.66-.13-3.11-.5-6.22-.63-9.33-.21-5.24.31-10.49.24-15.73-.07-4.9-.65-9.8-1.74-14.62-.88-3.89-4.24-6.8-7.19-9.93"/>
        <path class="cls-2" d="m161.5,118.32c-.22,6.81-.92,12.94-.99,20.76-.03,3.6-.21,6.36-.21,9.96,0,2.47-.18,4.95-.37,7.42-1.17,15.6-2.35,31.19-3.52,46.79-.02.28-.05.58-.26.81-.34.36-.98.37-1.54.35-5.87-.22-11.74-.43-17.61-.65.48-4.2.96-8.41,1.45-12.61.49-4.27.98-8.56.67-12.84-.31-4.27-1.4-8.49-1.5-12.77-.06-2.83.32-5.65.69-8.47.53-3.99,1.07-7.97,1.6-11.96.95-7.12,2.12-14.68,7.64-20.24,1.55-1.56,3.38-2.9,5.21-4.23,2.38-1.73,5.57-1.98,8.72-2.31"/>
        <path class="cls-2" d="m156.67,119.22c-2.85,0-5.53,1.62-8.9,2.8-3.63,1.27-5.95,3.63-8.58,6.14-2.31,2.2-7.58,9.39-9.65,11.82-5.9,6.92-11.61,14.94-16.9,22.32-4.08,5.69-7.08,6.84-12.59,11.15-3.83,3-8.31,5.01-12.62,7.26-6.03,3.14-11.81,6.78-17.25,10.87-.47.35-.96.73-1.17,1.28-.21.52-.13,1.1-.05,1.66.28,2.02.57,4.05.85,6.07.05.36.11.74.35,1.01.29.32.75.39,1.17.43,3.8.42,7.64.31,11.47.11,3.84-.21,7.69-.52,11.44-1.38,3.73-.86,7.31-2.27,10.87-3.66,5.34-2.09,10.71-4.21,15.55-7.28,9.15-5.82,15.85-14.73,21.83-23.77,1.11-1.68,2.21-3.38,3.03-5.22.99-2.2,1.56-4.57,2.12-6.91,1.1-4.56,2.18-9.11,3.25-13.67"/>
        <path class="cls-2" d="m183.67,115.92c.27,5.99.16,19.56-.55,27.81-2.03,23.55-2.33,37.42-6.98,60.59-.11.54-.19,1.17.28,1.55.37.3.95.33,1.47.34,6.7.11,13.4.22,20.1.33.41,0,.84,0,1.18-.18.39-.21.56-.6.7-.96,2.69-7.04,3.11-14.51,3.35-21.89.31-9.78.32-19.57.02-29.36-.28-9.42-.82-19.03,2.35-28.08.47-1.33,1.51-2.58.56-3.72-.49-.59-1.84-1.24-2.61-1.56-5.37-2.23-14.08-3.56-19.87-4.89"/>
        <path class="cls-1" d="m161.07,118.72s.88.14,1.75,2.67,3.5,14.35,1.79,25.52c-1.71,11.17-2.13,26.12-1.14,29.69.79,2.83,3.77,11.07,20.95-.2s1.27,11.92,1.27,11.92l-30.66,7.89s-6.3-25.32-5.77-26.22"/>
        <path class="cls-30" d="m179.35,183.2s6.14-2.38,11.95-9.88c5.81-7.5,5.03-12.76,5.03-16.93s-.7-27.21,7.25-26.51c7.94.7,1.39,39.32,1.39,39.32l-10.33,11.92-11.52,4.97"/>
        <path class="cls-2" d="m205.61,122.02c-2.49,3.71-4.62,8.72-5.8,14.35-1.53,7.27-.93,10.36-.99,18.73-.04,4.73.79,9.56-.79,15.54-1.23,4.63-4.91,6.83-9.24,8.86-4.33,2.03-8.95,3.34-13.44,4.96-10.72,3.85-20.9,6.66-30.97,11.99-3.1,1.64.31,5.53.27,6.15-.03.45.2.86.43,1.25,1.87,3.22,2.18,2.55,3.94,3.71.63.42,2.61-.51,3.28-.15.64.35,2.4-.07,3.13-.1,2.63-.12,5.65-.04,8.24-.5,13.37-2.34,24.91,1.54,37.41-3.75,3.41-1.44,6.85-3.04,9.55-5.59,3.82-3.61,5.76-8.77,7.17-13.84,5.33-19.13,4.53-40.74-6.06-57.52-1.35-2.14-3.91-3.92-6.12-4.09"/>
        <path class="cls-26" d="m143.09,197.98s-9.32-1.62-13.19-.8c-3.87.82-9.27,2.06-9.16,5.12l22.35.02"/>
        <path class="cls-30" d="m137.75,197.2s1.99-15.55.76-25.37c0,0,2.87-19.56,4.68-17.64s2.28,9.9,1.36,16.19c-.92,6.29-2.69,22.26-1.83,27.85"/>
      </g>
      <g>
        <rect class="cls-29" x="10" y="202.3" width="163.39" height="4.27" rx="1.62" ry="1.62"/>
        <g>
          <path class="cls-25" d="m110.1,206.57H12.57c-1.32,0-2.43-1-2.57-2.31l-6.8-64.64c-.16-1.52,1.04-2.85,2.57-2.85h98.44c1.34,0,2.45,1.02,2.57,2.35l5.9,64.64c.14,1.51-1.05,2.82-2.57,2.82Z"/>
          <path class="cls-15" d="m106.92,206.57H9.39c-1.32,0-2.43-1-2.57-2.31L.01,139.62c-.16-1.52,1.04-2.85,2.57-2.85h98.44c1.34,0,2.45,1.02,2.57,2.35l5.9,64.64c.14,1.51-1.05,2.82-2.57,2.82Z"/>
          <circle class="cls-4" cx="50.93" cy="172.52" r="5.4"/>
        </g>
      </g>
    </g>
  </g>
</svg>